# Blender v2.69 (sub 0) OBJ File: ''
# www.blender.org
o arwing
v 0.516860 -0.205088 -0.501008
v 0.095367 0.353087 -0.659272
v 0.097312 0.094476 0.234219
v -0.516476 -0.205089 -0.501008
v -0.104324 0.094476 0.234219
v -0.104324 0.353087 -0.659272
v -0.000145 0.100208 -1.018095
v 0.005003 0.070688 -0.810194
v 0.258015 -0.078718 -0.557142
v -0.247679 -0.078718 -0.557142
v -0.004928 -0.109389 2.521903
v 0.597200 -0.247169 -0.500145
v 0.516687 -0.214627 -0.500146
v -0.516507 -0.214627 -0.500146
v -0.602536 -0.247169 -0.500146
v -0.002668 -0.509177 0.408792
v 1.022157 0.546119 -1.494728
v 0.763807 0.144755 -0.345996
v 0.766115 -0.609533 0.507480
v 0.522936 -0.198932 -0.493687
v 0.754944 -0.199042 -0.493687
v 1.024151 -0.205639 -0.516313
v 1.398765 -0.469429 -1.532489
v 1.395266 -0.462017 -1.531294
v 1.024151 -0.201262 -0.516313
v 1.762184 -0.711247 -2.518293
v 0.516854 -0.205639 -0.500999
v 0.516854 -0.201262 -0.500999
v 1.012351 -0.459910 -1.018571
v 1.514918 -0.462179 -1.601195
v 0.911556 -0.306138 -0.355050
v 0.659222 -0.306138 -0.356224
v -1.021778 0.546119 -1.494728
v -0.765736 -0.609533 0.507480
v -0.763430 0.144755 -0.345996
v -0.522558 -0.198932 -0.493687
v -0.754566 -0.199042 -0.493687
v -1.023772 -0.205639 -0.516313
v -1.023772 -0.201262 -0.516313
v -1.394887 -0.462017 -1.531294
v -1.398387 -0.469429 -1.532489
v -1.761805 -0.711248 -2.518293
v -0.516476 -0.201262 -0.500999
v -0.516476 -0.205639 -0.500999
v -1.011972 -0.459910 -1.018571
v -1.514540 -0.462179 -1.601195
v -0.658844 -0.306138 -0.356224
v -0.911178 -0.306138 -0.355050
vt 1.000000 0.000000
vt 0.000000 1.000000
vt 0.000000 0.000000
vt 1.000000 1.000000
vt 1.000000 0.500000
vt 0.000000 0.500000
vt 0.000000 0.086700
vt 138.533798 202.581802
vt 103.519501 46.893101
vt 103.832199 -68.779198
vt 70.874001 66.909798
vt 102.318199 66.909798
vt 0.000000 0.498100
vt 0.001600 0.972800
vt 0.958100 0.958100
vt 0.501900 0.498100
vt 0.028900 0.505900
vt -138.482498 202.581802
vt -103.780899 -68.779198
vt -103.468300 46.893101
vt -70.822800 66.909798
vt -102.266998 66.909798
vn 0.760023 0.624713 0.179162
vn -0.766677 0.616719 0.178503
vn 0.000000 0.960573 0.278027
vn 0.000000 0.817404 -0.576065
vn 0.000000 -0.861113 -0.508414
vn 0.462925 0.884877 0.051893
vn 0.000000 0.996053 0.088762
vn -0.689552 0.718117 0.093954
vn 0.000000 -0.089989 -0.995943
vn -0.374534 -0.926648 -0.032377
vn 0.353666 -0.934973 -0.027310
vn -0.438429 0.897599 0.045776
vn 0.683393 0.723837 0.095046
vn 0.753003 0.426546 -0.501044
vn 0.662358 -0.735999 0.139955
vn -0.665057 -0.733905 0.138139
vn 0.000000 -0.951297 -0.308277
vn -0.036078 -0.089277 -0.995353
vn 0.034065 -0.090048 -0.995355
vn -0.754732 0.412691 -0.509967
vn -0.414909 -0.902201 -0.117830
vn 0.000000 -0.405953 -0.913894
vn 0.397495 -0.907071 -0.138635
vn 0.870038 0.370562 0.325144
vn -0.827485 0.419614 0.373085
vn -0.821696 0.569748 0.014270
vn -0.000380 -0.802107 -0.597180
vn 0.742125 -0.617211 -0.261344
vn -0.000438 -0.925250 -0.379358
vn 0.938276 0.000000 0.345889
vn -0.850919 0.000000 -0.525297
vn 0.013626 -0.892230 0.451376
vn 0.473014 -0.799383 0.370466
vn -0.007590 0.967848 -0.251422
vn 0.243469 -0.917403 0.314794
vn 0.502083 0.098500 0.859192
vn -0.174989 0.937204 -0.301709
vn -0.571121 -0.806987 -0.150307
vn -0.016210 -0.843455 -0.536956
vn -0.713005 0.000000 0.701159
vn -0.002737 0.808555 0.588413
vn 0.819927 0.000000 0.572469
vn -0.870039 0.370560 0.325143
vn 0.827485 0.419614 0.373085
vn 0.821696 0.569748 0.014270
vn 0.000380 -0.802107 -0.597180
vn -0.742127 -0.617209 -0.261343
vn 0.000438 -0.925250 -0.379359
vn -0.938276 0.000000 0.345889
vn 0.850919 0.000000 -0.525297
vn -0.013626 -0.892230 0.451376
vn -0.491594 -0.781535 0.384107
vn -0.001157 0.969668 -0.244424
vn -0.243468 -0.917402 0.314795
vn -0.502076 0.098527 0.859193
vn 0.174987 0.937204 -0.301709
vn 0.571121 -0.806987 -0.150307
vn 0.016210 -0.843455 -0.536956
vn 0.713005 0.000000 0.701159
vn -0.016703 0.832827 0.553281
vn -0.819927 0.000000 0.572469
vn 0.000000 -0.089983 -0.995943
vn -0.414912 -0.902200 -0.117827
vn 0.000000 -0.405951 -0.913895
vn 0.397494 -0.907071 -0.138637
vn 0.894141 0.385440 0.227921
vn 0.491595 -0.781535 0.384107
vn 0.001159 0.969668 -0.244423
vn 0.002661 -0.820244 -0.572008
vn 0.016703 0.832827 0.553281
vn -0.894116 0.385515 0.227891
vn -0.473012 -0.799384 0.370465
vn 0.007590 0.967848 -0.251422
vn -0.002661 -0.820244 -0.572008
vn 0.002737 0.808556 0.588413
s off
f 1/1/1 2/2/1 3/3/1
f 4/3/2 5/1/2 6/4/2
f 3/3/3 2/1/3 6/4/3
f 2/3/4 7/5/4 6/2/4
f 8/6/5 9/1/5 10/4/5
f 1/1/6 11/5/6 12/3/6
f 3/3/7 5/2/7 11/5/7
f 5/1/8 4/3/8 11/5/8
f 4/4/9 1/1/9 14/2/9
f 12/3/10 11/5/10 13/7/10
f 11/5/11 15/2/11 14/2/11
f 4/3/12 15/2/12 11/5/12
f 1/1/13 3/3/13 11/5/13
f 1/1/14 7/4/14 2/2/14
f 11/5/15 16/6/15 13/7/15
f 14/2/16 16/6/16 11/5/16
f 13/7/17 16/6/17 14/2/17
f 1/1/18 12/3/18 13/7/18
f 14/2/19 15/2/19 4/4/19
f 6/4/20 7/2/20 4/3/20
f 1/1/21 9/1/21 8/6/21
f 1/1/22 4/4/22 9/1/22
f 10/4/23 4/3/23 8/6/23
f 17/8/24 18/9/24 19/10/24
f 18/9/25 20/11/25 19/10/25
f 18/9/26 17/8/26 20/11/26
f 20/11/27 17/8/27 21/12/27
f 17/8/28 19/10/28 21/12/28
f 19/10/29 20/11/29 21/12/29
f 22/2/30 23/13/30 25/14/30
f 26/3/31 27/4/31 28/15/31
f 29/3/32 22/4/32 27/2/32
f 29/3/33 26/1/33 23/16/33
f 28/15/34 25/14/34 24/17/34
f 26/1/35 30/13/35 23/16/35
f 23/13/36 30/13/36 24/17/36
f 24/17/37 30/13/37 26/3/37
f 27/4/38 26/3/38 29/1/38
f 22/4/39 31/14/39 27/2/39
f 27/4/40 32/4/40 28/15/40
f 28/15/41 32/4/41 31/14/41
f 25/14/42 31/14/42 22/2/42
f 33/18/43 34/19/43 35/20/43
f 35/20/44 34/19/44 36/21/44
f 35/20/45 36/21/45 33/18/45
f 36/21/46 37/22/46 33/18/46
f 33/18/47 37/22/47 34/19/47
f 34/19/48 37/22/48 36/21/48
f 38/2/49 39/14/49 41/13/49
f 42/3/50 43/15/50 44/4/50
f 45/3/51 44/2/51 38/4/51
f 45/3/52 38/2/52 41/16/52
f 43/15/53 42/3/53 40/17/53
f 42/1/54 41/16/54 46/13/54
f 41/13/55 40/17/55 46/13/55
f 40/17/56 42/3/56 46/13/56
f 44/4/57 45/1/57 42/3/57
f 38/4/58 44/2/58 48/14/58
f 44/4/59 43/15/59 47/4/59
f 43/15/60 39/14/60 48/14/60
f 39/14/61 38/2/61 48/14/61
f 5/2/3 3/3/3 6/4/3
f 1/1/62 13/7/62 14/2/62
f 7/4/63 1/1/63 8/6/63
f 4/4/64 10/4/64 9/1/64
f 4/3/65 7/2/65 8/6/65
f 23/13/66 24/17/66 25/14/66
f 22/2/67 29/3/67 23/16/67
f 26/3/68 28/15/68 24/17/68
f 31/14/69 32/4/69 27/2/69
f 25/14/70 28/15/70 31/14/70
f 39/14/71 40/17/71 41/13/71
f 42/1/72 45/3/72 41/16/72
f 39/14/73 43/15/73 40/17/73
f 44/2/74 47/4/74 48/14/74
f 47/4/75 43/15/75 48/14/75
