# Blender v2.69 (sub 0) OBJ File: ''
# www.blender.org
mtllib pewpew.mtl
o cube.002
v 0.231755 -0.050000 -0.000000
v -0.000000 -0.050000 -0.707107
v 0.231755 0.050000 -0.000000
v -0.000000 0.050000 -0.707107
v 0.000000 0.050000 0.707107
v -0.232107 0.050000 0.000000
v 0.000000 -0.050000 0.707107
v -0.232107 -0.050000 0.000000
vt 0.000000 0.000000
vt 1.000000 0.000000
vt 0.000000 1.000000
vt 1.000000 1.000000
vn 0.765618 -0.643239 0.000000
vn 0.000183 -0.543443 -0.839412
vn 0.765618 0.643239 0.000000
vn 0.000183 0.543443 -0.839412
vn 0.000183 0.543443 0.839412
vn -0.765709 0.643178 0.000000
vn 0.000183 -0.543443 0.839412
vn -0.765709 -0.643178 0.000000
usemtl cube.002
s 1
f 1/1/1 2/2/2 3/3/3
f 3/3/3 2/2/2 4/4/4
f 3/1/3 4/2/4 5/3/5
f 5/3/5 4/2/4 6/4/6
f 5/4/5 6/3/6 7/2/7
f 7/2/7 6/3/6 8/1/8
f 8/2/8 1/3/1 7/1/7
f 1/3/1 8/2/8 2/4/2
f 2/1/2 8/2/8 4/3/4
f 4/3/4 8/2/8 6/4/6
f 7/1/7 1/2/1 5/3/5
f 5/3/5 1/2/1 3/4/3
